<mxfile host="app.diagrams.net" agent="Mozilla/5.0 (Macintosh; Intel Mac OS X 10_15_7) AppleWebKit/537.36 (KHTML, like Gecko) Chrome/141.0.0.0 Safari/537.36" version="28.2.5">
  <diagram name="DER-modelo_conceitual" id="_IVKUvi_oqqvRrkZLEZQ">
    <mxGraphModel dx="2719" dy="2397" grid="1" gridSize="10" guides="1" tooltips="1" connect="1" arrows="1" fold="1" page="1" pageScale="1" pageWidth="827" pageHeight="1169" math="0" shadow="0">
      <root>
        <mxCell id="0" />
        <mxCell id="1" parent="0" />
        <mxCell id="jfpWovGagBecrgjIYNpG-1" value="&lt;span style=&quot;font-size: 36px;&quot;&gt;Sistema de E-commerce&amp;nbsp;&lt;/span&gt;&lt;span style=&quot;font-size: 36px; background-color: initial;&quot;&gt;| Aurora Modas&lt;/span&gt;" style="text;html=1;align=center;verticalAlign=middle;resizable=0;points=[];autosize=1;strokeColor=none;fillColor=none;rounded=1;labelBackgroundColor=none;" parent="1" vertex="1">
          <mxGeometry x="695" y="-270" width="670" height="60" as="geometry" />
        </mxCell>
        <mxCell id="jfpWovGagBecrgjIYNpG-4" style="edgeStyle=orthogonalEdgeStyle;rounded=1;orthogonalLoop=1;jettySize=auto;html=1;entryX=0.5;entryY=1;entryDx=0;entryDy=0;curved=0;endArrow=none;endFill=0;labelBackgroundColor=none;fontColor=default;" parent="1" source="jfpWovGagBecrgjIYNpG-2" target="jfpWovGagBecrgjIYNpG-3" edge="1">
          <mxGeometry relative="1" as="geometry" />
        </mxCell>
        <mxCell id="jfpWovGagBecrgjIYNpG-6" style="edgeStyle=orthogonalEdgeStyle;rounded=1;orthogonalLoop=1;jettySize=auto;html=1;entryX=0.5;entryY=1;entryDx=0;entryDy=0;curved=0;endArrow=none;endFill=0;labelBackgroundColor=none;fontColor=default;" parent="1" source="jfpWovGagBecrgjIYNpG-2" target="jfpWovGagBecrgjIYNpG-5" edge="1">
          <mxGeometry relative="1" as="geometry" />
        </mxCell>
        <mxCell id="jfpWovGagBecrgjIYNpG-10" style="edgeStyle=orthogonalEdgeStyle;rounded=1;orthogonalLoop=1;jettySize=auto;html=1;entryX=0.5;entryY=1;entryDx=0;entryDy=0;curved=0;endArrow=none;endFill=0;labelBackgroundColor=none;fontColor=default;" parent="1" source="jfpWovGagBecrgjIYNpG-2" target="jfpWovGagBecrgjIYNpG-9" edge="1">
          <mxGeometry relative="1" as="geometry" />
        </mxCell>
        <mxCell id="jfpWovGagBecrgjIYNpG-11" style="edgeStyle=orthogonalEdgeStyle;rounded=1;orthogonalLoop=1;jettySize=auto;html=1;entryX=0.5;entryY=1;entryDx=0;entryDy=0;curved=0;endArrow=none;endFill=0;labelBackgroundColor=none;fontColor=default;" parent="1" source="jfpWovGagBecrgjIYNpG-2" target="jfpWovGagBecrgjIYNpG-7" edge="1">
          <mxGeometry relative="1" as="geometry" />
        </mxCell>
        <mxCell id="jfpWovGagBecrgjIYNpG-12" style="edgeStyle=orthogonalEdgeStyle;rounded=1;orthogonalLoop=1;jettySize=auto;html=1;entryX=0.5;entryY=1;entryDx=0;entryDy=0;curved=0;endArrow=none;endFill=0;labelBackgroundColor=none;fontColor=default;" parent="1" source="jfpWovGagBecrgjIYNpG-2" target="jfpWovGagBecrgjIYNpG-8" edge="1">
          <mxGeometry relative="1" as="geometry" />
        </mxCell>
        <mxCell id="jfpWovGagBecrgjIYNpG-14" style="edgeStyle=orthogonalEdgeStyle;rounded=1;orthogonalLoop=1;jettySize=auto;html=1;entryX=1;entryY=0.5;entryDx=0;entryDy=0;curved=0;endArrow=none;endFill=0;labelBackgroundColor=none;fontColor=default;" parent="1" source="jfpWovGagBecrgjIYNpG-2" target="jfpWovGagBecrgjIYNpG-13" edge="1">
          <mxGeometry relative="1" as="geometry" />
        </mxCell>
        <mxCell id="jfpWovGagBecrgjIYNpG-38" style="edgeStyle=orthogonalEdgeStyle;rounded=1;orthogonalLoop=1;jettySize=auto;html=1;entryX=0.5;entryY=1;entryDx=0;entryDy=0;endArrow=none;endFill=0;curved=0;labelBackgroundColor=none;fontColor=default;" parent="1" source="jfpWovGagBecrgjIYNpG-2" target="jfpWovGagBecrgjIYNpG-37" edge="1">
          <mxGeometry relative="1" as="geometry" />
        </mxCell>
        <mxCell id="jfpWovGagBecrgjIYNpG-65" style="edgeStyle=orthogonalEdgeStyle;rounded=1;orthogonalLoop=1;jettySize=auto;html=1;endArrow=none;endFill=0;" parent="1" source="jfpWovGagBecrgjIYNpG-2" target="jfpWovGagBecrgjIYNpG-64" edge="1">
          <mxGeometry relative="1" as="geometry" />
        </mxCell>
        <mxCell id="jfpWovGagBecrgjIYNpG-93" style="edgeStyle=orthogonalEdgeStyle;rounded=1;orthogonalLoop=1;jettySize=auto;html=1;entryX=0.5;entryY=0;entryDx=0;entryDy=0;strokeColor=default;align=center;verticalAlign=middle;fontFamily=Helvetica;fontSize=11;fontColor=default;labelBackgroundColor=default;endArrow=none;endFill=0;" parent="1" source="jfpWovGagBecrgjIYNpG-2" target="jfpWovGagBecrgjIYNpG-91" edge="1">
          <mxGeometry relative="1" as="geometry">
            <Array as="points">
              <mxPoint x="160" y="390" />
              <mxPoint x="286" y="390" />
            </Array>
          </mxGeometry>
        </mxCell>
        <mxCell id="jfpWovGagBecrgjIYNpG-108" value="&lt;b&gt;(0,n)&lt;/b&gt;" style="edgeLabel;html=1;align=center;verticalAlign=middle;resizable=0;points=[];rounded=1;fontFamily=Helvetica;fontSize=11;fontColor=default;labelBackgroundColor=default;" parent="jfpWovGagBecrgjIYNpG-93" vertex="1" connectable="0">
          <mxGeometry x="0.8205" y="1" relative="1" as="geometry">
            <mxPoint as="offset" />
          </mxGeometry>
        </mxCell>
        <mxCell id="jfpWovGagBecrgjIYNpG-101" style="edgeStyle=orthogonalEdgeStyle;rounded=1;orthogonalLoop=1;jettySize=auto;html=1;entryX=0.5;entryY=1;entryDx=0;entryDy=0;strokeColor=default;align=center;verticalAlign=middle;fontFamily=Helvetica;fontSize=11;fontColor=default;labelBackgroundColor=default;endArrow=none;endFill=0;" parent="1" source="jfpWovGagBecrgjIYNpG-2" target="jfpWovGagBecrgjIYNpG-99" edge="1">
          <mxGeometry relative="1" as="geometry" />
        </mxCell>
        <mxCell id="jfpWovGagBecrgjIYNpG-2" value="UsuÃ¡rio" style="rounded=1;arcSize=10;whiteSpace=wrap;html=1;align=center;labelBackgroundColor=none;" parent="1" vertex="1">
          <mxGeometry x="110" y="290" width="100" height="40" as="geometry" />
        </mxCell>
        <mxCell id="jfpWovGagBecrgjIYNpG-3" value="cpf" style="ellipse;whiteSpace=wrap;html=1;align=center;fontStyle=4;rounded=1;labelBackgroundColor=none;" parent="1" vertex="1">
          <mxGeometry x="30" y="260" width="60" height="30" as="geometry" />
        </mxCell>
        <mxCell id="jfpWovGagBecrgjIYNpG-5" value="nome" style="ellipse;whiteSpace=wrap;html=1;align=center;rounded=1;labelBackgroundColor=none;" parent="1" vertex="1">
          <mxGeometry x="70" y="230" width="60" height="30" as="geometry" />
        </mxCell>
        <mxCell id="jfpWovGagBecrgjIYNpG-7" value="e-mail" style="ellipse;whiteSpace=wrap;html=1;align=center;rounded=1;labelBackgroundColor=none;" parent="1" vertex="1">
          <mxGeometry x="190" y="230" width="60" height="30" as="geometry" />
        </mxCell>
        <mxCell id="jfpWovGagBecrgjIYNpG-8" value="senha" style="ellipse;whiteSpace=wrap;html=1;align=center;rounded=1;labelBackgroundColor=none;" parent="1" vertex="1">
          <mxGeometry x="220" y="270" width="60" height="30" as="geometry" />
        </mxCell>
        <mxCell id="jfpWovGagBecrgjIYNpG-9" value="telefone" style="ellipse;whiteSpace=wrap;html=1;align=center;rounded=1;labelBackgroundColor=none;" parent="1" vertex="1">
          <mxGeometry x="250" y="320" width="70" height="30" as="geometry" />
        </mxCell>
        <mxCell id="jfpWovGagBecrgjIYNpG-24" style="edgeStyle=orthogonalEdgeStyle;rounded=1;orthogonalLoop=1;jettySize=auto;html=1;entryX=0.5;entryY=0;entryDx=0;entryDy=0;curved=0;endArrow=none;endFill=0;labelBackgroundColor=none;fontColor=default;" parent="1" source="jfpWovGagBecrgjIYNpG-13" target="jfpWovGagBecrgjIYNpG-15" edge="1">
          <mxGeometry relative="1" as="geometry" />
        </mxCell>
        <mxCell id="jfpWovGagBecrgjIYNpG-26" style="edgeStyle=orthogonalEdgeStyle;rounded=1;orthogonalLoop=1;jettySize=auto;html=1;endArrow=none;endFill=0;curved=0;labelBackgroundColor=none;fontColor=default;" parent="1" source="jfpWovGagBecrgjIYNpG-13" target="jfpWovGagBecrgjIYNpG-17" edge="1">
          <mxGeometry relative="1" as="geometry" />
        </mxCell>
        <mxCell id="jfpWovGagBecrgjIYNpG-27" style="edgeStyle=orthogonalEdgeStyle;rounded=1;orthogonalLoop=1;jettySize=auto;html=1;entryX=0.5;entryY=0;entryDx=0;entryDy=0;curved=0;endArrow=none;endFill=0;labelBackgroundColor=none;fontColor=default;" parent="1" source="jfpWovGagBecrgjIYNpG-13" target="jfpWovGagBecrgjIYNpG-18" edge="1">
          <mxGeometry relative="1" as="geometry" />
        </mxCell>
        <mxCell id="jfpWovGagBecrgjIYNpG-28" style="edgeStyle=orthogonalEdgeStyle;rounded=1;orthogonalLoop=1;jettySize=auto;html=1;curved=0;endArrow=none;endFill=0;labelBackgroundColor=none;fontColor=default;" parent="1" source="jfpWovGagBecrgjIYNpG-13" target="jfpWovGagBecrgjIYNpG-22" edge="1">
          <mxGeometry relative="1" as="geometry" />
        </mxCell>
        <mxCell id="jfpWovGagBecrgjIYNpG-29" style="edgeStyle=orthogonalEdgeStyle;rounded=1;orthogonalLoop=1;jettySize=auto;html=1;curved=0;endArrow=none;endFill=0;labelBackgroundColor=none;fontColor=default;" parent="1" source="jfpWovGagBecrgjIYNpG-13" target="jfpWovGagBecrgjIYNpG-21" edge="1">
          <mxGeometry relative="1" as="geometry" />
        </mxCell>
        <mxCell id="jfpWovGagBecrgjIYNpG-30" style="edgeStyle=orthogonalEdgeStyle;rounded=1;orthogonalLoop=1;jettySize=auto;html=1;entryX=0.5;entryY=0;entryDx=0;entryDy=0;curved=0;endArrow=none;endFill=0;labelBackgroundColor=none;fontColor=default;" parent="1" source="jfpWovGagBecrgjIYNpG-13" target="jfpWovGagBecrgjIYNpG-20" edge="1">
          <mxGeometry relative="1" as="geometry" />
        </mxCell>
        <mxCell id="jfpWovGagBecrgjIYNpG-31" style="edgeStyle=orthogonalEdgeStyle;rounded=1;orthogonalLoop=1;jettySize=auto;html=1;curved=0;endArrow=none;endFill=0;labelBackgroundColor=none;fontColor=default;" parent="1" source="jfpWovGagBecrgjIYNpG-13" target="jfpWovGagBecrgjIYNpG-19" edge="1">
          <mxGeometry relative="1" as="geometry" />
        </mxCell>
        <mxCell id="jfpWovGagBecrgjIYNpG-32" style="edgeStyle=orthogonalEdgeStyle;rounded=1;orthogonalLoop=1;jettySize=auto;html=1;entryX=0.5;entryY=0;entryDx=0;entryDy=0;curved=0;endArrow=none;endFill=0;labelBackgroundColor=none;fontColor=default;" parent="1" source="jfpWovGagBecrgjIYNpG-13" target="jfpWovGagBecrgjIYNpG-23" edge="1">
          <mxGeometry relative="1" as="geometry" />
        </mxCell>
        <mxCell id="jfpWovGagBecrgjIYNpG-35" style="edgeStyle=orthogonalEdgeStyle;rounded=1;orthogonalLoop=1;jettySize=auto;html=1;entryX=0.5;entryY=0;entryDx=0;entryDy=0;curved=0;endArrow=none;endFill=0;labelBackgroundColor=none;fontColor=default;" parent="1" source="jfpWovGagBecrgjIYNpG-13" target="jfpWovGagBecrgjIYNpG-16" edge="1">
          <mxGeometry relative="1" as="geometry" />
        </mxCell>
        <mxCell id="jfpWovGagBecrgjIYNpG-13" value="endereÃ§o" style="ellipse;shape=doubleEllipse;margin=3;whiteSpace=wrap;html=1;align=center;rounded=1;labelBackgroundColor=none;" parent="1" vertex="1">
          <mxGeometry x="40" y="350" width="100" height="40" as="geometry" />
        </mxCell>
        <mxCell id="jfpWovGagBecrgjIYNpG-15" value="CEP" style="ellipse;whiteSpace=wrap;html=1;align=center;rounded=1;labelBackgroundColor=none;" parent="1" vertex="1">
          <mxGeometry x="-330" y="390" width="70" height="30" as="geometry" />
        </mxCell>
        <mxCell id="jfpWovGagBecrgjIYNpG-16" value="r&lt;span style=&quot;background-color: initial;&quot;&gt;ua&lt;/span&gt;" style="ellipse;whiteSpace=wrap;html=1;align=center;rounded=1;labelBackgroundColor=none;" parent="1" vertex="1">
          <mxGeometry x="-250" y="390" width="61" height="30" as="geometry" />
        </mxCell>
        <mxCell id="jfpWovGagBecrgjIYNpG-18" value="b&lt;span style=&quot;background-color: initial;&quot;&gt;airro&lt;/span&gt;" style="ellipse;whiteSpace=wrap;html=1;align=center;rounded=1;labelBackgroundColor=none;" parent="1" vertex="1">
          <mxGeometry x="-100" y="390" width="70" height="30" as="geometry" />
        </mxCell>
        <mxCell id="jfpWovGagBecrgjIYNpG-19" value="complemento" style="ellipse;whiteSpace=wrap;html=1;align=center;rounded=1;labelBackgroundColor=none;" parent="1" vertex="1">
          <mxGeometry x="-50" y="430" width="110" height="30" as="geometry" />
        </mxCell>
        <mxCell id="jfpWovGagBecrgjIYNpG-20" value="ponto_de_referencia" style="ellipse;whiteSpace=wrap;html=1;align=center;rounded=1;labelBackgroundColor=none;" parent="1" vertex="1">
          <mxGeometry x="70" y="430" width="160" height="30" as="geometry" />
        </mxCell>
        <mxCell id="jfpWovGagBecrgjIYNpG-21" value="cidade" style="ellipse;whiteSpace=wrap;html=1;align=center;rounded=1;labelBackgroundColor=none;" parent="1" vertex="1">
          <mxGeometry x="-290" y="450" width="70" height="30" as="geometry" />
        </mxCell>
        <mxCell id="jfpWovGagBecrgjIYNpG-22" value="estado" style="ellipse;whiteSpace=wrap;html=1;align=center;rounded=1;labelBackgroundColor=none;" parent="1" vertex="1">
          <mxGeometry x="-220" y="450" width="70" height="30" as="geometry" />
        </mxCell>
        <mxCell id="jfpWovGagBecrgjIYNpG-23" value="pais" style="ellipse;whiteSpace=wrap;html=1;align=center;rounded=1;labelBackgroundColor=none;" parent="1" vertex="1">
          <mxGeometry x="-140" y="450" width="70" height="30" as="geometry" />
        </mxCell>
        <mxCell id="jfpWovGagBecrgjIYNpG-17" value="numero" style="ellipse;whiteSpace=wrap;html=1;align=center;rounded=1;labelBackgroundColor=none;" parent="1" vertex="1">
          <mxGeometry x="-180" y="400" width="70" height="30" as="geometry" />
        </mxCell>
        <mxCell id="jfpWovGagBecrgjIYNpG-37" value="sobrenome" style="ellipse;whiteSpace=wrap;html=1;align=center;rounded=1;labelBackgroundColor=none;" parent="1" vertex="1">
          <mxGeometry x="115" y="190" width="90" height="30" as="geometry" />
        </mxCell>
        <mxCell id="jfpWovGagBecrgjIYNpG-66" style="edgeStyle=orthogonalEdgeStyle;rounded=1;orthogonalLoop=1;jettySize=auto;html=1;entryX=0.5;entryY=1;entryDx=0;entryDy=0;strokeColor=default;align=center;verticalAlign=middle;fontFamily=Helvetica;fontSize=11;fontColor=default;labelBackgroundColor=default;endArrow=none;endFill=0;" parent="1" source="jfpWovGagBecrgjIYNpG-41" target="jfpWovGagBecrgjIYNpG-44" edge="1">
          <mxGeometry relative="1" as="geometry" />
        </mxCell>
        <mxCell id="jfpWovGagBecrgjIYNpG-67" style="edgeStyle=orthogonalEdgeStyle;rounded=1;orthogonalLoop=1;jettySize=auto;html=1;entryX=0.5;entryY=1;entryDx=0;entryDy=0;strokeColor=default;align=center;verticalAlign=middle;fontFamily=Helvetica;fontSize=11;fontColor=default;labelBackgroundColor=default;endArrow=none;endFill=0;" parent="1" source="jfpWovGagBecrgjIYNpG-41" target="jfpWovGagBecrgjIYNpG-55" edge="1">
          <mxGeometry relative="1" as="geometry" />
        </mxCell>
        <mxCell id="jfpWovGagBecrgjIYNpG-68" style="edgeStyle=orthogonalEdgeStyle;rounded=1;orthogonalLoop=1;jettySize=auto;html=1;entryX=0.5;entryY=1;entryDx=0;entryDy=0;strokeColor=default;align=center;verticalAlign=middle;fontFamily=Helvetica;fontSize=11;fontColor=default;labelBackgroundColor=default;endArrow=none;endFill=0;" parent="1" source="jfpWovGagBecrgjIYNpG-41" target="jfpWovGagBecrgjIYNpG-56" edge="1">
          <mxGeometry relative="1" as="geometry" />
        </mxCell>
        <mxCell id="jfpWovGagBecrgjIYNpG-69" style="edgeStyle=orthogonalEdgeStyle;rounded=1;orthogonalLoop=1;jettySize=auto;html=1;entryX=0;entryY=0.5;entryDx=0;entryDy=0;strokeColor=default;align=center;verticalAlign=middle;fontFamily=Helvetica;fontSize=11;fontColor=default;labelBackgroundColor=default;endArrow=none;endFill=0;" parent="1" source="jfpWovGagBecrgjIYNpG-41" target="jfpWovGagBecrgjIYNpG-58" edge="1">
          <mxGeometry relative="1" as="geometry" />
        </mxCell>
        <mxCell id="jfpWovGagBecrgjIYNpG-70" style="edgeStyle=orthogonalEdgeStyle;rounded=1;orthogonalLoop=1;jettySize=auto;html=1;entryX=0;entryY=0.5;entryDx=0;entryDy=0;strokeColor=default;align=center;verticalAlign=middle;fontFamily=Helvetica;fontSize=11;fontColor=default;labelBackgroundColor=default;endArrow=none;endFill=0;" parent="1" source="jfpWovGagBecrgjIYNpG-41" target="jfpWovGagBecrgjIYNpG-59" edge="1">
          <mxGeometry relative="1" as="geometry" />
        </mxCell>
        <mxCell id="jfpWovGagBecrgjIYNpG-71" style="edgeStyle=orthogonalEdgeStyle;rounded=1;orthogonalLoop=1;jettySize=auto;html=1;entryX=0;entryY=0.5;entryDx=0;entryDy=0;strokeColor=default;align=center;verticalAlign=middle;fontFamily=Helvetica;fontSize=11;fontColor=default;labelBackgroundColor=default;endArrow=none;endFill=0;" parent="1" source="jfpWovGagBecrgjIYNpG-41" target="jfpWovGagBecrgjIYNpG-60" edge="1">
          <mxGeometry relative="1" as="geometry" />
        </mxCell>
        <mxCell id="jfpWovGagBecrgjIYNpG-72" style="edgeStyle=orthogonalEdgeStyle;rounded=1;orthogonalLoop=1;jettySize=auto;html=1;entryX=0;entryY=0.5;entryDx=0;entryDy=0;strokeColor=default;align=center;verticalAlign=middle;fontFamily=Helvetica;fontSize=11;fontColor=default;labelBackgroundColor=default;endArrow=none;endFill=0;" parent="1" source="jfpWovGagBecrgjIYNpG-41" target="jfpWovGagBecrgjIYNpG-63" edge="1">
          <mxGeometry relative="1" as="geometry" />
        </mxCell>
        <mxCell id="jfpWovGagBecrgjIYNpG-73" style="edgeStyle=orthogonalEdgeStyle;rounded=1;orthogonalLoop=1;jettySize=auto;html=1;entryX=0;entryY=0.5;entryDx=0;entryDy=0;strokeColor=default;align=center;verticalAlign=middle;fontFamily=Helvetica;fontSize=11;fontColor=default;labelBackgroundColor=default;endArrow=none;endFill=0;" parent="1" source="jfpWovGagBecrgjIYNpG-41" target="jfpWovGagBecrgjIYNpG-62" edge="1">
          <mxGeometry relative="1" as="geometry" />
        </mxCell>
        <mxCell id="jfpWovGagBecrgjIYNpG-74" style="edgeStyle=orthogonalEdgeStyle;rounded=1;orthogonalLoop=1;jettySize=auto;html=1;entryX=0;entryY=0.5;entryDx=0;entryDy=0;strokeColor=default;align=center;verticalAlign=middle;fontFamily=Helvetica;fontSize=11;fontColor=default;labelBackgroundColor=default;endArrow=none;endFill=0;" parent="1" source="jfpWovGagBecrgjIYNpG-41" target="jfpWovGagBecrgjIYNpG-61" edge="1">
          <mxGeometry relative="1" as="geometry" />
        </mxCell>
        <mxCell id="jfpWovGagBecrgjIYNpG-82" style="edgeStyle=orthogonalEdgeStyle;rounded=1;orthogonalLoop=1;jettySize=auto;html=1;entryX=0.5;entryY=1;entryDx=0;entryDy=0;strokeColor=default;align=center;verticalAlign=middle;fontFamily=Helvetica;fontSize=11;fontColor=default;labelBackgroundColor=default;endArrow=none;endFill=0;" parent="1" source="jfpWovGagBecrgjIYNpG-41" target="jfpWovGagBecrgjIYNpG-43" edge="1">
          <mxGeometry relative="1" as="geometry" />
        </mxCell>
        <mxCell id="jfpWovGagBecrgjIYNpG-41" value="Produto" style="rounded=1;arcSize=10;whiteSpace=wrap;html=1;align=center;labelBackgroundColor=none;" parent="1" vertex="1">
          <mxGeometry x="965" y="390" width="100" height="40" as="geometry" />
        </mxCell>
        <mxCell id="jfpWovGagBecrgjIYNpG-43" value="id_produto" style="ellipse;whiteSpace=wrap;html=1;align=center;fontStyle=4;rounded=1;" parent="1" vertex="1">
          <mxGeometry x="740" y="340" width="80" height="30" as="geometry" />
        </mxCell>
        <mxCell id="jfpWovGagBecrgjIYNpG-75" style="edgeStyle=orthogonalEdgeStyle;rounded=1;orthogonalLoop=1;jettySize=auto;html=1;entryX=0.5;entryY=1;entryDx=0;entryDy=0;strokeColor=default;align=center;verticalAlign=middle;fontFamily=Helvetica;fontSize=11;fontColor=default;labelBackgroundColor=default;endArrow=none;endFill=0;" parent="1" source="jfpWovGagBecrgjIYNpG-44" target="jfpWovGagBecrgjIYNpG-53" edge="1">
          <mxGeometry relative="1" as="geometry" />
        </mxCell>
        <mxCell id="jfpWovGagBecrgjIYNpG-76" style="edgeStyle=orthogonalEdgeStyle;rounded=1;orthogonalLoop=1;jettySize=auto;html=1;entryX=0.5;entryY=1;entryDx=0;entryDy=0;strokeColor=default;align=center;verticalAlign=middle;fontFamily=Helvetica;fontSize=11;fontColor=default;labelBackgroundColor=default;endArrow=none;endFill=0;" parent="1" source="jfpWovGagBecrgjIYNpG-44" target="jfpWovGagBecrgjIYNpG-54" edge="1">
          <mxGeometry relative="1" as="geometry" />
        </mxCell>
        <mxCell id="jfpWovGagBecrgjIYNpG-44" value="categoria_produto" style="ellipse;shape=doubleEllipse;margin=3;whiteSpace=wrap;html=1;align=center;rounded=1;" parent="1" vertex="1">
          <mxGeometry x="844" y="270" width="150" height="35" as="geometry" />
        </mxCell>
        <mxCell id="jfpWovGagBecrgjIYNpG-45" value="vestido_longo" style="ellipse;whiteSpace=wrap;html=1;align=center;rounded=1;" parent="1" vertex="1">
          <mxGeometry x="643" y="140" width="106" height="30" as="geometry" />
        </mxCell>
        <mxCell id="jfpWovGagBecrgjIYNpG-46" value="vestido_medio" style="ellipse;whiteSpace=wrap;html=1;align=center;rounded=1;" parent="1" vertex="1">
          <mxGeometry x="710" y="100" width="110" height="30" as="geometry" />
        </mxCell>
        <mxCell id="jfpWovGagBecrgjIYNpG-47" value="vestido_curto" style="ellipse;whiteSpace=wrap;html=1;align=center;rounded=1;" parent="1" vertex="1">
          <mxGeometry x="804" y="130" width="110" height="30" as="geometry" />
        </mxCell>
        <mxCell id="jfpWovGagBecrgjIYNpG-83" style="edgeStyle=orthogonalEdgeStyle;rounded=1;orthogonalLoop=1;jettySize=auto;html=1;strokeColor=default;align=center;verticalAlign=middle;fontFamily=Helvetica;fontSize=11;fontColor=default;labelBackgroundColor=default;endArrow=none;endFill=0;" parent="1" source="jfpWovGagBecrgjIYNpG-48" target="jfpWovGagBecrgjIYNpG-50" edge="1">
          <mxGeometry relative="1" as="geometry" />
        </mxCell>
        <mxCell id="jfpWovGagBecrgjIYNpG-84" style="edgeStyle=orthogonalEdgeStyle;rounded=1;orthogonalLoop=1;jettySize=auto;html=1;entryX=1;entryY=0.5;entryDx=0;entryDy=0;strokeColor=default;align=center;verticalAlign=middle;fontFamily=Helvetica;fontSize=11;fontColor=default;labelBackgroundColor=default;endArrow=none;endFill=0;" parent="1" source="jfpWovGagBecrgjIYNpG-48" target="jfpWovGagBecrgjIYNpG-49" edge="1">
          <mxGeometry relative="1" as="geometry" />
        </mxCell>
        <mxCell id="jfpWovGagBecrgjIYNpG-90" style="edgeStyle=orthogonalEdgeStyle;rounded=1;orthogonalLoop=1;jettySize=auto;html=1;entryX=0.5;entryY=0;entryDx=0;entryDy=0;strokeColor=default;align=center;verticalAlign=middle;fontFamily=Helvetica;fontSize=11;fontColor=default;labelBackgroundColor=default;endArrow=none;endFill=0;" parent="1" source="jfpWovGagBecrgjIYNpG-48" target="jfpWovGagBecrgjIYNpG-89" edge="1">
          <mxGeometry relative="1" as="geometry" />
        </mxCell>
        <mxCell id="jfpWovGagBecrgjIYNpG-118" style="edgeStyle=orthogonalEdgeStyle;rounded=1;orthogonalLoop=1;jettySize=auto;html=1;strokeColor=default;align=center;verticalAlign=middle;fontFamily=Helvetica;fontSize=11;fontColor=default;labelBackgroundColor=default;endArrow=none;endFill=0;" parent="1" source="jfpWovGagBecrgjIYNpG-48" target="jfpWovGagBecrgjIYNpG-117" edge="1">
          <mxGeometry relative="1" as="geometry" />
        </mxCell>
        <mxCell id="jfpWovGagBecrgjIYNpG-120" style="edgeStyle=orthogonalEdgeStyle;rounded=1;orthogonalLoop=1;jettySize=auto;html=1;entryX=0.5;entryY=0;entryDx=0;entryDy=0;strokeColor=default;align=center;verticalAlign=middle;fontFamily=Helvetica;fontSize=11;fontColor=default;labelBackgroundColor=default;endArrow=none;endFill=0;" parent="1" source="jfpWovGagBecrgjIYNpG-48" target="jfpWovGagBecrgjIYNpG-119" edge="1">
          <mxGeometry relative="1" as="geometry" />
        </mxCell>
        <mxCell id="jfpWovGagBecrgjIYNpG-122" style="edgeStyle=orthogonalEdgeStyle;rounded=1;orthogonalLoop=1;jettySize=auto;html=1;strokeColor=default;align=center;verticalAlign=middle;fontFamily=Helvetica;fontSize=11;fontColor=default;labelBackgroundColor=default;endArrow=none;endFill=0;entryX=0;entryY=0.5;entryDx=0;entryDy=0;" parent="1" source="jfpWovGagBecrgjIYNpG-48" target="jfpWovGagBecrgjIYNpG-121" edge="1">
          <mxGeometry relative="1" as="geometry" />
        </mxCell>
        <mxCell id="jfpWovGagBecrgjIYNpG-48" value="ServiÃ§&lt;span style=&quot;background-color: initial;&quot;&gt;os&lt;/span&gt;" style="rounded=1;arcSize=10;whiteSpace=wrap;html=1;align=center;labelBackgroundColor=none;" parent="1" vertex="1">
          <mxGeometry x="965" y="720" width="100" height="40" as="geometry" />
        </mxCell>
        <mxCell id="jfpWovGagBecrgjIYNpG-49" value="id_servico" style="ellipse;whiteSpace=wrap;html=1;align=center;fontStyle=4;rounded=1;" parent="1" vertex="1">
          <mxGeometry x="817" y="725" width="80" height="30" as="geometry" />
        </mxCell>
        <mxCell id="jfpWovGagBecrgjIYNpG-87" style="edgeStyle=orthogonalEdgeStyle;rounded=1;orthogonalLoop=1;jettySize=auto;html=1;entryX=0.5;entryY=0;entryDx=0;entryDy=0;strokeColor=default;align=center;verticalAlign=middle;fontFamily=Helvetica;fontSize=11;fontColor=default;labelBackgroundColor=default;endArrow=none;endFill=0;" parent="1" source="jfpWovGagBecrgjIYNpG-50" target="jfpWovGagBecrgjIYNpG-85" edge="1">
          <mxGeometry relative="1" as="geometry" />
        </mxCell>
        <mxCell id="jfpWovGagBecrgjIYNpG-88" style="edgeStyle=orthogonalEdgeStyle;rounded=1;orthogonalLoop=1;jettySize=auto;html=1;entryX=0.5;entryY=0;entryDx=0;entryDy=0;strokeColor=default;align=center;verticalAlign=middle;fontFamily=Helvetica;fontSize=11;fontColor=default;labelBackgroundColor=default;endArrow=none;endFill=0;" parent="1" source="jfpWovGagBecrgjIYNpG-50" target="jfpWovGagBecrgjIYNpG-86" edge="1">
          <mxGeometry relative="1" as="geometry" />
        </mxCell>
        <mxCell id="jfpWovGagBecrgjIYNpG-125" style="edgeStyle=orthogonalEdgeStyle;rounded=1;orthogonalLoop=1;jettySize=auto;html=1;entryX=0.5;entryY=0;entryDx=0;entryDy=0;strokeColor=default;align=center;verticalAlign=middle;fontFamily=Helvetica;fontSize=11;fontColor=default;labelBackgroundColor=default;endArrow=none;endFill=0;" parent="1" source="jfpWovGagBecrgjIYNpG-50" target="jfpWovGagBecrgjIYNpG-124" edge="1">
          <mxGeometry relative="1" as="geometry" />
        </mxCell>
        <mxCell id="jfpWovGagBecrgjIYNpG-50" value="categoria_servico" style="ellipse;shape=doubleEllipse;margin=3;whiteSpace=wrap;html=1;align=center;rounded=1;" parent="1" vertex="1">
          <mxGeometry x="855" y="816" width="139" height="32" as="geometry" />
        </mxCell>
        <mxCell id="jfpWovGagBecrgjIYNpG-51" value="vestido_noiva" style="ellipse;whiteSpace=wrap;html=1;align=center;rounded=1;" parent="1" vertex="1">
          <mxGeometry x="914" y="130" width="110" height="30" as="geometry" />
        </mxCell>
        <mxCell id="jfpWovGagBecrgjIYNpG-52" value="vestido_formatura" style="ellipse;whiteSpace=wrap;html=1;align=center;rounded=1;" parent="1" vertex="1">
          <mxGeometry x="1034" y="130" width="130" height="30" as="geometry" />
        </mxCell>
        <mxCell id="jfpWovGagBecrgjIYNpG-77" style="edgeStyle=orthogonalEdgeStyle;rounded=1;orthogonalLoop=1;jettySize=auto;html=1;entryX=0.5;entryY=1;entryDx=0;entryDy=0;strokeColor=default;align=center;verticalAlign=middle;fontFamily=Helvetica;fontSize=11;fontColor=default;labelBackgroundColor=default;endArrow=none;endFill=0;" parent="1" source="jfpWovGagBecrgjIYNpG-53" target="jfpWovGagBecrgjIYNpG-45" edge="1">
          <mxGeometry relative="1" as="geometry" />
        </mxCell>
        <mxCell id="jfpWovGagBecrgjIYNpG-78" style="edgeStyle=orthogonalEdgeStyle;rounded=1;orthogonalLoop=1;jettySize=auto;html=1;strokeColor=default;align=center;verticalAlign=middle;fontFamily=Helvetica;fontSize=11;fontColor=default;labelBackgroundColor=default;endArrow=none;endFill=0;" parent="1" source="jfpWovGagBecrgjIYNpG-53" target="jfpWovGagBecrgjIYNpG-46" edge="1">
          <mxGeometry relative="1" as="geometry" />
        </mxCell>
        <mxCell id="jfpWovGagBecrgjIYNpG-79" style="edgeStyle=orthogonalEdgeStyle;rounded=1;orthogonalLoop=1;jettySize=auto;html=1;entryX=0.5;entryY=1;entryDx=0;entryDy=0;strokeColor=default;align=center;verticalAlign=middle;fontFamily=Helvetica;fontSize=11;fontColor=default;labelBackgroundColor=default;endArrow=none;endFill=0;" parent="1" source="jfpWovGagBecrgjIYNpG-53" target="jfpWovGagBecrgjIYNpG-47" edge="1">
          <mxGeometry relative="1" as="geometry" />
        </mxCell>
        <mxCell id="jfpWovGagBecrgjIYNpG-53" value="vestido_casual" style="ellipse;shape=doubleEllipse;margin=3;whiteSpace=wrap;html=1;align=center;rounded=1;" parent="1" vertex="1">
          <mxGeometry x="725" y="210" width="120" height="40" as="geometry" />
        </mxCell>
        <mxCell id="jfpWovGagBecrgjIYNpG-80" style="edgeStyle=orthogonalEdgeStyle;rounded=1;orthogonalLoop=1;jettySize=auto;html=1;entryX=0.5;entryY=1;entryDx=0;entryDy=0;strokeColor=default;align=center;verticalAlign=middle;fontFamily=Helvetica;fontSize=11;fontColor=default;labelBackgroundColor=default;endArrow=none;endFill=0;" parent="1" source="jfpWovGagBecrgjIYNpG-54" target="jfpWovGagBecrgjIYNpG-51" edge="1">
          <mxGeometry relative="1" as="geometry" />
        </mxCell>
        <mxCell id="jfpWovGagBecrgjIYNpG-81" style="edgeStyle=orthogonalEdgeStyle;rounded=1;orthogonalLoop=1;jettySize=auto;html=1;entryX=0.5;entryY=1;entryDx=0;entryDy=0;strokeColor=default;align=center;verticalAlign=middle;fontFamily=Helvetica;fontSize=11;fontColor=default;labelBackgroundColor=default;endArrow=none;endFill=0;" parent="1" source="jfpWovGagBecrgjIYNpG-54" target="jfpWovGagBecrgjIYNpG-52" edge="1">
          <mxGeometry relative="1" as="geometry" />
        </mxCell>
        <mxCell id="jfpWovGagBecrgjIYNpG-54" value="vestido_festa" style="ellipse;shape=doubleEllipse;margin=3;whiteSpace=wrap;html=1;align=center;rounded=1;" parent="1" vertex="1">
          <mxGeometry x="987" y="210" width="126" height="40" as="geometry" />
        </mxCell>
        <mxCell id="jfpWovGagBecrgjIYNpG-55" value="preco_produto" style="ellipse;whiteSpace=wrap;html=1;align=center;rounded=1;" parent="1" vertex="1">
          <mxGeometry x="1034" y="270" width="120" height="30" as="geometry" />
        </mxCell>
        <mxCell id="jfpWovGagBecrgjIYNpG-56" value="marca_produto" style="ellipse;whiteSpace=wrap;html=1;align=center;rounded=1;" parent="1" vertex="1">
          <mxGeometry x="1144" y="300" width="120" height="30" as="geometry" />
        </mxCell>
        <mxCell id="jfpWovGagBecrgjIYNpG-58" value="cor_produto" style="ellipse;whiteSpace=wrap;html=1;align=center;rounded=1;" parent="1" vertex="1">
          <mxGeometry x="1174" y="345" width="120" height="30" as="geometry" />
        </mxCell>
        <mxCell id="jfpWovGagBecrgjIYNpG-59" value="tipo_tecido_produto" style="ellipse;whiteSpace=wrap;html=1;align=center;rounded=1;" parent="1" vertex="1">
          <mxGeometry x="1191" y="390" width="143" height="30" as="geometry" />
        </mxCell>
        <mxCell id="jfpWovGagBecrgjIYNpG-60" value="estoque_produto" style="ellipse;whiteSpace=wrap;html=1;align=center;rounded=1;" parent="1" vertex="1">
          <mxGeometry x="1114" y="430" width="143" height="30" as="geometry" />
        </mxCell>
        <mxCell id="jfpWovGagBecrgjIYNpG-61" value="imagens_produto" style="ellipse;whiteSpace=wrap;html=1;align=center;rounded=1;" parent="1" vertex="1">
          <mxGeometry x="1144" y="220" width="143" height="30" as="geometry" />
        </mxCell>
        <mxCell id="jfpWovGagBecrgjIYNpG-62" value="descricao_produto" style="ellipse;whiteSpace=wrap;html=1;align=center;rounded=1;" parent="1" vertex="1">
          <mxGeometry x="1214" y="260" width="143" height="30" as="geometry" />
        </mxCell>
        <mxCell id="jfpWovGagBecrgjIYNpG-63" value="avaliacoes_produto" style="ellipse;whiteSpace=wrap;html=1;align=center;rounded=1;" parent="1" vertex="1">
          <mxGeometry x="1282" y="310" width="143" height="30" as="geometry" />
        </mxCell>
        <mxCell id="jfpWovGagBecrgjIYNpG-64" value="metodo_pagamento" style="ellipse;shape=doubleEllipse;margin=3;whiteSpace=wrap;html=1;align=center;rounded=1;labelBackgroundColor=none;" parent="1" vertex="1">
          <mxGeometry x="-150" y="310" width="150" height="40" as="geometry" />
        </mxCell>
        <mxCell id="jfpWovGagBecrgjIYNpG-85" value="ajustes_geral" style="ellipse;whiteSpace=wrap;html=1;align=center;rounded=1;" parent="1" vertex="1">
          <mxGeometry x="695" y="856" width="109" height="30" as="geometry" />
        </mxCell>
        <mxCell id="jfpWovGagBecrgjIYNpG-86" value="vestido_personalizado" style="ellipse;whiteSpace=wrap;html=1;align=center;rounded=1;" parent="1" vertex="1">
          <mxGeometry x="741" y="890" width="173" height="30" as="geometry" />
        </mxCell>
        <mxCell id="jfpWovGagBecrgjIYNpG-89" value="valor_servico" style="ellipse;whiteSpace=wrap;html=1;align=center;rounded=1;" parent="1" vertex="1">
          <mxGeometry x="1054" y="790" width="120" height="26" as="geometry" />
        </mxCell>
        <mxCell id="jfpWovGagBecrgjIYNpG-94" style="edgeStyle=orthogonalEdgeStyle;rounded=1;orthogonalLoop=1;jettySize=auto;html=1;strokeColor=default;align=center;verticalAlign=middle;fontFamily=Helvetica;fontSize=11;fontColor=default;labelBackgroundColor=default;endArrow=none;endFill=0;exitX=0.5;exitY=1;exitDx=0;exitDy=0;" parent="1" source="jfpWovGagBecrgjIYNpG-91" target="jfpWovGagBecrgjIYNpG-92" edge="1">
          <mxGeometry relative="1" as="geometry">
            <mxPoint x="346" y="520" as="sourcePoint" />
          </mxGeometry>
        </mxCell>
        <mxCell id="jfpWovGagBecrgjIYNpG-107" value="&lt;b&gt;(1,n)&lt;/b&gt;" style="edgeLabel;html=1;align=center;verticalAlign=middle;resizable=0;points=[];rounded=1;fontFamily=Helvetica;fontSize=11;fontColor=default;labelBackgroundColor=default;" parent="jfpWovGagBecrgjIYNpG-94" vertex="1" connectable="0">
          <mxGeometry x="-0.6621" y="-2" relative="1" as="geometry">
            <mxPoint as="offset" />
          </mxGeometry>
        </mxCell>
        <mxCell id="jfpWovGagBecrgjIYNpG-91" value="Realiza" style="shape=rhombus;perimeter=rhombusPerimeter;whiteSpace=wrap;html=1;align=center;rounded=1;fontFamily=Helvetica;fontSize=11;fontColor=default;labelBackgroundColor=default;" parent="1" vertex="1">
          <mxGeometry x="226" y="490" width="120" height="60" as="geometry" />
        </mxCell>
        <mxCell id="jfpWovGagBecrgjIYNpG-102" style="edgeStyle=orthogonalEdgeStyle;rounded=1;orthogonalLoop=1;jettySize=auto;html=1;entryX=0.5;entryY=1;entryDx=0;entryDy=0;strokeColor=default;align=center;verticalAlign=middle;fontFamily=Helvetica;fontSize=11;fontColor=default;labelBackgroundColor=default;endArrow=none;endFill=0;" parent="1" source="jfpWovGagBecrgjIYNpG-92" target="jfpWovGagBecrgjIYNpG-98" edge="1">
          <mxGeometry relative="1" as="geometry" />
        </mxCell>
        <mxCell id="jfpWovGagBecrgjIYNpG-103" style="edgeStyle=orthogonalEdgeStyle;rounded=1;orthogonalLoop=1;jettySize=auto;html=1;strokeColor=default;align=center;verticalAlign=middle;fontFamily=Helvetica;fontSize=11;fontColor=default;labelBackgroundColor=default;endArrow=none;endFill=0;" parent="1" source="jfpWovGagBecrgjIYNpG-92" target="jfpWovGagBecrgjIYNpG-95" edge="1">
          <mxGeometry relative="1" as="geometry" />
        </mxCell>
        <mxCell id="jfpWovGagBecrgjIYNpG-104" style="edgeStyle=orthogonalEdgeStyle;rounded=1;orthogonalLoop=1;jettySize=auto;html=1;strokeColor=default;align=center;verticalAlign=middle;fontFamily=Helvetica;fontSize=11;fontColor=default;labelBackgroundColor=default;endArrow=none;endFill=0;" parent="1" source="jfpWovGagBecrgjIYNpG-92" target="jfpWovGagBecrgjIYNpG-96" edge="1">
          <mxGeometry relative="1" as="geometry" />
        </mxCell>
        <mxCell id="jfpWovGagBecrgjIYNpG-105" style="edgeStyle=orthogonalEdgeStyle;rounded=1;orthogonalLoop=1;jettySize=auto;html=1;entryX=0;entryY=0.5;entryDx=0;entryDy=0;strokeColor=default;align=center;verticalAlign=middle;fontFamily=Helvetica;fontSize=11;fontColor=default;labelBackgroundColor=default;endArrow=none;endFill=0;exitX=0.5;exitY=0;exitDx=0;exitDy=0;" parent="1" source="jfpWovGagBecrgjIYNpG-92" target="jfpWovGagBecrgjIYNpG-97" edge="1">
          <mxGeometry relative="1" as="geometry">
            <Array as="points">
              <mxPoint x="610" y="520" />
              <mxPoint x="705" y="520" />
            </Array>
          </mxGeometry>
        </mxCell>
        <mxCell id="jfpWovGagBecrgjIYNpG-113" style="edgeStyle=orthogonalEdgeStyle;rounded=1;orthogonalLoop=1;jettySize=auto;html=1;strokeColor=default;align=center;verticalAlign=middle;fontFamily=Helvetica;fontSize=11;fontColor=default;labelBackgroundColor=default;endArrow=none;endFill=0;entryX=0.083;entryY=0.5;entryDx=0;entryDy=0;entryPerimeter=0;" parent="1" source="jfpWovGagBecrgjIYNpG-92" target="jfpWovGagBecrgjIYNpG-110" edge="1">
          <mxGeometry relative="1" as="geometry" />
        </mxCell>
        <mxCell id="jfpWovGagBecrgjIYNpG-114" value="&lt;b&gt;(1,n)&lt;/b&gt;" style="edgeLabel;html=1;align=center;verticalAlign=middle;resizable=0;points=[];rounded=1;fontFamily=Helvetica;fontSize=11;fontColor=default;labelBackgroundColor=default;" parent="jfpWovGagBecrgjIYNpG-113" vertex="1" connectable="0">
          <mxGeometry x="0.7232" relative="1" as="geometry">
            <mxPoint as="offset" />
          </mxGeometry>
        </mxCell>
        <mxCell id="jfpWovGagBecrgjIYNpG-92" value="Pedido" style="rounded=1;arcSize=10;whiteSpace=wrap;html=1;align=center;fontFamily=Helvetica;fontSize=11;fontColor=default;labelBackgroundColor=default;" parent="1" vertex="1">
          <mxGeometry x="550" y="565" width="100" height="40" as="geometry" />
        </mxCell>
        <mxCell id="jfpWovGagBecrgjIYNpG-95" value="id_produto" style="ellipse;whiteSpace=wrap;html=1;align=center;rounded=1;" parent="1" vertex="1">
          <mxGeometry x="510" y="440" width="100" height="30" as="geometry" />
        </mxCell>
        <mxCell id="jfpWovGagBecrgjIYNpG-96" value="id_servico" style="ellipse;whiteSpace=wrap;html=1;align=center;rounded=1;" parent="1" vertex="1">
          <mxGeometry x="620" y="440" width="100" height="30" as="geometry" />
        </mxCell>
        <mxCell id="jfpWovGagBecrgjIYNpG-97" value="id_endereco_usuario" style="ellipse;whiteSpace=wrap;html=1;align=center;rounded=1;" parent="1" vertex="1">
          <mxGeometry x="705" y="480" width="150" height="30" as="geometry" />
        </mxCell>
        <mxCell id="jfpWovGagBecrgjIYNpG-98" value="&lt;u&gt;id_pedido&lt;/u&gt;" style="ellipse;whiteSpace=wrap;html=1;align=center;rounded=1;" parent="1" vertex="1">
          <mxGeometry x="460" y="490" width="100" height="30" as="geometry" />
        </mxCell>
        <mxCell id="jfpWovGagBecrgjIYNpG-99" value="carrinho" style="ellipse;shape=doubleEllipse;margin=3;whiteSpace=wrap;html=1;align=center;rounded=1;labelBackgroundColor=none;" parent="1" vertex="1">
          <mxGeometry x="-50" y="170" width="90" height="40" as="geometry" />
        </mxCell>
        <mxCell id="jfpWovGagBecrgjIYNpG-111" style="edgeStyle=orthogonalEdgeStyle;rounded=1;orthogonalLoop=1;jettySize=auto;html=1;entryX=0.5;entryY=0;entryDx=0;entryDy=0;strokeColor=default;align=center;verticalAlign=middle;fontFamily=Helvetica;fontSize=11;fontColor=default;labelBackgroundColor=default;endArrow=none;endFill=0;" parent="1" source="jfpWovGagBecrgjIYNpG-110" target="jfpWovGagBecrgjIYNpG-48" edge="1">
          <mxGeometry relative="1" as="geometry" />
        </mxCell>
        <mxCell id="jfpWovGagBecrgjIYNpG-116" value="&lt;b&gt;(1,n)&lt;/b&gt;" style="edgeLabel;html=1;align=center;verticalAlign=middle;resizable=0;points=[];rounded=1;fontFamily=Helvetica;fontSize=11;fontColor=default;labelBackgroundColor=default;" parent="jfpWovGagBecrgjIYNpG-111" vertex="1" connectable="0">
          <mxGeometry x="-0.6036" y="2" relative="1" as="geometry">
            <mxPoint as="offset" />
          </mxGeometry>
        </mxCell>
        <mxCell id="jfpWovGagBecrgjIYNpG-112" style="edgeStyle=orthogonalEdgeStyle;rounded=1;orthogonalLoop=1;jettySize=auto;html=1;entryX=0.5;entryY=1;entryDx=0;entryDy=0;strokeColor=default;align=center;verticalAlign=middle;fontFamily=Helvetica;fontSize=11;fontColor=default;labelBackgroundColor=default;endArrow=none;endFill=0;" parent="1" source="jfpWovGagBecrgjIYNpG-110" target="jfpWovGagBecrgjIYNpG-41" edge="1">
          <mxGeometry relative="1" as="geometry" />
        </mxCell>
        <mxCell id="jfpWovGagBecrgjIYNpG-115" value="&lt;b&gt;(1,n)&lt;/b&gt;" style="edgeLabel;html=1;align=center;verticalAlign=middle;resizable=0;points=[];rounded=1;fontFamily=Helvetica;fontSize=11;fontColor=default;labelBackgroundColor=default;" parent="jfpWovGagBecrgjIYNpG-112" vertex="1" connectable="0">
          <mxGeometry x="-0.7082" relative="1" as="geometry">
            <mxPoint as="offset" />
          </mxGeometry>
        </mxCell>
        <mxCell id="jfpWovGagBecrgjIYNpG-110" value="eh_composto_por" style="shape=rhombus;perimeter=rhombusPerimeter;whiteSpace=wrap;html=1;align=center;rounded=1;fontFamily=Helvetica;fontSize=11;fontColor=default;labelBackgroundColor=default;" parent="1" vertex="1">
          <mxGeometry x="937" y="555" width="156" height="60" as="geometry" />
        </mxCell>
        <mxCell id="jfpWovGagBecrgjIYNpG-117" value="data_entrega_servico" style="ellipse;whiteSpace=wrap;html=1;align=center;rounded=1;" parent="1" vertex="1">
          <mxGeometry x="1182.5" y="800" width="160" height="26" as="geometry" />
        </mxCell>
        <mxCell id="jfpWovGagBecrgjIYNpG-119" value="data_solicitacao_servico" style="ellipse;whiteSpace=wrap;html=1;align=center;rounded=1;" parent="1" vertex="1">
          <mxGeometry x="1214" y="764" width="160" height="26" as="geometry" />
        </mxCell>
        <mxCell id="jfpWovGagBecrgjIYNpG-121" value="descricao_servico" style="ellipse;whiteSpace=wrap;html=1;align=center;rounded=1;" parent="1" vertex="1">
          <mxGeometry x="1034" y="830" width="120" height="26" as="geometry" />
        </mxCell>
        <mxCell id="jfpWovGagBecrgjIYNpG-124" value="uniformes" style="ellipse;whiteSpace=wrap;html=1;align=center;rounded=1;" parent="1" vertex="1">
          <mxGeometry x="914" y="910" width="90" height="30" as="geometry" />
        </mxCell>
      </root>
    </mxGraphModel>
  </diagram>
</mxfile>
